<?xml version="1.0" encoding="utf-8"?>
<!-- Generator: Adobe Illustrator 16.0.0, SVG Export Plug-In . SVG Version: 6.00 Build 0)  -->
<!DOCTYPE svg PUBLIC "-//W3C//DTD SVG 1.1//EN" "http://www.w3.org/Graphics/SVG/1.1/DTD/svg11.dtd">
<svg version="1.1"
	 id="svg69" inkscape:version="1.2.1 (9c6d41e410, 2022-07-14, custom)" sodipodi:docname="banner.svg" xmlns:inkscape="http://www.inkscape.org/namespaces/inkscape" xmlns:sodipodi="http://sodipodi.sourceforge.net/DTD/sodipodi-0.dtd" xmlns:svg="http://www.w3.org/2000/svg"
	 xmlns="http://www.w3.org/2000/svg" xmlns:xlink="http://www.w3.org/1999/xlink" x="0px" y="0px" width="1868.379px"
	 height="573.281px" viewBox="0 0 1868.379 573.281" enable-background="new 0 0 1868.379 573.281" xml:space="preserve">
<sodipodi:namedview  id="namedview464" inkscape:window-maximized="1" inkscape:pagecheckerboard="0" borderopacity="0.25" bordercolor="#000000" pagecolor="#ffffff" inkscape:cy="785.39764" inkscape:cx="1093.5831" inkscape:zoom="0.73656956" showgrid="false" inkscape:current-layer="svg69" inkscape:window-y="27" inkscape:window-x="1920" inkscape:window-height="1028" inkscape:window-width="1920" inkscape:deskcolor="#d1d1d1" inkscape:pageopacity="0.0" inkscape:showpageshadow="2">
	</sodipodi:namedview>
<g id="g75" transform="matrix(6.2358313,0,0,6.2358313,-1.4863032,0.08299588)">
	<g id="layer1">
		<rect id="rect317" x="0.255" y="-0.013" fill="#FFFFFF" width="299.604" height="91.933"/>
	</g>
	
		<image display="none" overflow="visible" enable-background="new    " width="300" height="92" id="image77" xlink:href="F49B1DC0.png"  transform="matrix(1 0 0 1 -3.919517e-004 2.334357e-004)">
	</image>
	<rect id="rect1163" x="0.238" fill="#276955" width="299.607" height="68.407"/>
	<rect id="rect1773" x="4.29" y="4.052" fill="#FFFFFF" width="60.064" height="60.064"/>
	<g enable-background="new    ">
		<path fill="#FFFFFF" d="M82.729,23.125c-0.523,0-0.952-0.179-1.288-0.537c-0.336-0.358-0.504-0.815-0.504-1.372
			c0-0.557,0.168-1.014,0.504-1.372c0.336-0.358,0.765-0.537,1.288-0.537h19.973c0.523,0,0.952,0.179,1.288,0.537
			c0.336,0.358,0.504,0.815,0.504,1.372c0,0.557-0.168,1.014-0.504,1.372c-0.336,0.358-0.765,0.537-1.288,0.537H82.729z
			 M92.735,50.36c-0.548,0-1.008-0.199-1.381-0.596c-0.373-0.398-0.56-0.888-0.56-1.471V19.308h3.883v28.984
			c0,0.583-0.187,1.074-0.56,1.471S93.282,50.36,92.735,50.36z"/>
		<path fill="#FFFFFF" d="M111.513,50.519c-2.066,0-3.901-0.47-5.507-1.411c-1.605-0.941-2.862-2.24-3.771-3.896
			c-0.909-1.656-1.363-3.558-1.363-5.705c0-2.173,0.429-4.088,1.288-5.745c0.859-1.656,2.047-2.955,3.565-3.896
			c1.518-0.941,3.26-1.411,5.227-1.411c1.941,0,3.608,0.457,5.003,1.372c1.394,0.914,2.458,2.174,3.192,3.777
			c0.734,1.604,1.101,3.453,1.101,5.546c0,0.504-0.162,0.921-0.485,1.252c-0.324,0.332-0.734,0.497-1.232,0.497h-15.045v-3.181
			h14.933l-1.531,1.113c-0.025-1.325-0.274-2.511-0.747-3.558c-0.473-1.047-1.145-1.875-2.016-2.485
			c-0.872-0.609-1.929-0.914-3.173-0.914c-1.419,0-2.632,0.332-3.64,0.994c-1.008,0.663-1.773,1.571-2.296,2.724
			c-0.523,1.153-0.784,2.459-0.784,3.916c0,1.458,0.311,2.757,0.933,3.896c0.622,1.14,1.481,2.041,2.576,2.704
			c1.095,0.663,2.352,0.994,3.771,0.994c0.771,0,1.562-0.152,2.371-0.457c0.808-0.304,1.462-0.656,1.96-1.054
			c0.373-0.291,0.778-0.444,1.213-0.457c0.435-0.013,0.815,0.126,1.139,0.417c0.423,0.398,0.647,0.835,0.672,1.312
			c0.024,0.477-0.174,0.888-0.597,1.232c-0.846,0.716-1.898,1.299-3.155,1.749C113.859,50.294,112.658,50.519,111.513,50.519z"/>
		<path fill="#FFFFFF" d="M132.718,50.519c-1.991,0-3.765-0.483-5.32-1.451c-1.556-0.967-2.776-2.279-3.659-3.936
			c-0.884-1.656-1.325-3.532-1.325-5.626c0-2.147,0.435-4.055,1.307-5.725c0.871-1.67,2.066-2.975,3.584-3.916
			c1.518-0.941,3.26-1.411,5.227-1.411c1.468,0,2.812,0.298,4.032,0.895c1.219,0.596,2.315,1.491,3.285,2.684
			c0.348,0.424,0.472,0.862,0.373,1.312c-0.1,0.451-0.373,0.849-0.821,1.193c-0.349,0.265-0.734,0.352-1.157,0.258
			c-0.423-0.093-0.809-0.324-1.157-0.696c-1.22-1.378-2.738-2.067-4.555-2.067c-1.269,0-2.389,0.312-3.36,0.934
			c-0.971,0.623-1.73,1.491-2.277,2.604c-0.548,1.113-0.821,2.425-0.821,3.936c0,1.431,0.28,2.704,0.84,3.817
			c0.56,1.113,1.338,1.995,2.333,2.644c0.995,0.65,2.153,0.974,3.472,0.974c0.871,0,1.636-0.112,2.296-0.338
			c0.659-0.225,1.263-0.576,1.811-1.054c0.398-0.344,0.809-0.537,1.232-0.576c0.423-0.04,0.796,0.086,1.12,0.378
			c0.423,0.371,0.659,0.789,0.709,1.252c0.05,0.464-0.1,0.882-0.448,1.253C137.646,49.631,135.407,50.519,132.718,50.519z"/>
		<path fill="#FFFFFF" d="M146.905,50.4c-0.548,0-1.002-0.192-1.363-0.576c-0.361-0.384-0.541-0.868-0.541-1.451V30.639
			c0-0.609,0.18-1.1,0.541-1.471c0.361-0.371,0.815-0.557,1.363-0.557c0.572,0,1.033,0.186,1.381,0.557
			c0.348,0.372,0.523,0.862,0.523,1.471v17.733c0,0.583-0.174,1.067-0.523,1.451C147.938,50.208,147.477,50.4,146.905,50.4z
			 M162.249,50.4c-0.548,0-1.002-0.192-1.363-0.576c-0.361-0.384-0.541-0.868-0.541-1.451v-9.781c0-1.511-0.261-2.743-0.784-3.698
			c-0.523-0.954-1.226-1.663-2.109-2.127c-0.884-0.463-1.898-0.696-3.043-0.696c-1.045,0-1.992,0.226-2.837,0.676
			c-0.846,0.451-1.518,1.054-2.016,1.809c-0.498,0.755-0.747,1.624-0.747,2.604h-2.352c0-1.67,0.379-3.161,1.139-4.473
			c0.759-1.312,1.798-2.352,3.117-3.121c1.319-0.768,2.8-1.153,4.443-1.153c1.717,0,3.254,0.391,4.611,1.173
			c1.356,0.782,2.427,1.928,3.211,3.439c0.784,1.511,1.176,3.366,1.176,5.566v9.781c0,0.583-0.181,1.067-0.541,1.451
			C163.251,50.208,162.796,50.4,162.249,50.4z"/>
		<path fill="#FFFFFF" d="M178.825,50.519c-2.016,0-3.796-0.47-5.339-1.411c-1.544-0.941-2.757-2.24-3.64-3.896
			c-0.884-1.656-1.325-3.558-1.325-5.705c0-2.173,0.442-4.088,1.325-5.745c0.883-1.656,2.096-2.955,3.64-3.896
			c1.543-0.941,3.323-1.411,5.339-1.411c1.991,0,3.758,0.471,5.301,1.411c1.543,0.941,2.756,2.24,3.64,3.896
			c0.883,1.657,1.325,3.572,1.325,5.745c0,2.147-0.436,4.049-1.307,5.705c-0.872,1.657-2.078,2.956-3.621,3.896
			C182.62,50.049,180.841,50.519,178.825,50.519z M178.825,46.941c1.294,0,2.439-0.318,3.435-0.954
			c0.995-0.636,1.773-1.511,2.333-2.624c0.56-1.113,0.84-2.399,0.84-3.857c0-1.457-0.28-2.75-0.84-3.877
			c-0.56-1.126-1.338-2.008-2.333-2.644c-0.996-0.636-2.141-0.954-3.435-0.954c-1.294,0-2.439,0.318-3.435,0.954
			c-0.996,0.636-1.78,1.518-2.352,2.644c-0.573,1.127-0.859,2.419-0.859,3.877c0,1.458,0.286,2.743,0.859,3.857
			c0.572,1.113,1.356,1.988,2.352,2.624C176.385,46.623,177.53,46.941,178.825,46.941z"/>
		<path fill="#FFFFFF" d="M198.723,50.36c-1.095,0-2.066-0.318-2.912-0.954c-0.846-0.636-1.506-1.504-1.979-2.604
			c-0.473-1.1-0.709-2.366-0.709-3.797V21.296c0-0.583,0.174-1.06,0.523-1.431c0.348-0.371,0.796-0.557,1.344-0.557
			c0.547,0,0.995,0.186,1.344,0.557c0.348,0.372,0.523,0.849,0.523,1.431v21.709c0,0.981,0.174,1.789,0.523,2.425
			c0.348,0.636,0.796,0.954,1.344,0.954h0.933c0.498,0,0.902,0.186,1.213,0.557c0.311,0.372,0.467,0.849,0.467,1.431
			c0,0.583-0.237,1.061-0.709,1.431c-0.473,0.371-1.083,0.557-1.829,0.557H198.723z"/>
		<path fill="#FFFFFF" d="M209.026,50.36c-1.095,0-2.066-0.318-2.912-0.954c-0.846-0.636-1.506-1.504-1.979-2.604
			c-0.473-1.1-0.709-2.366-0.709-3.797V21.296c0-0.583,0.174-1.06,0.523-1.431c0.348-0.371,0.796-0.557,1.344-0.557
			c0.547,0,0.995,0.186,1.344,0.557c0.348,0.372,0.523,0.849,0.523,1.431v21.709c0,0.981,0.174,1.789,0.523,2.425
			c0.348,0.636,0.796,0.954,1.344,0.954h0.933c0.498,0,0.902,0.186,1.213,0.557c0.311,0.372,0.467,0.849,0.467,1.431
			c0,0.583-0.237,1.061-0.709,1.431c-0.473,0.371-1.083,0.557-1.829,0.557H209.026z"/>
		<path fill="#FFFFFF" d="M216.754,25.073c-0.672,0-1.251-0.258-1.736-0.775c-0.485-0.517-0.728-1.133-0.728-1.849
			s0.243-1.332,0.728-1.849s1.064-0.775,1.736-0.775c0.672,0,1.251,0.258,1.736,0.775s0.728,1.133,0.728,1.849
			s-0.243,1.332-0.728,1.849C218.005,24.815,217.426,25.073,216.754,25.073z M216.754,50.36c-0.548,0-1.002-0.192-1.363-0.576
			c-0.361-0.384-0.541-0.868-0.541-1.451V30.639c0-0.609,0.18-1.1,0.541-1.471c0.361-0.371,0.815-0.557,1.363-0.557
			c0.572,0,1.032,0.186,1.381,0.557c0.348,0.372,0.523,0.862,0.523,1.471v17.693c0,0.583-0.174,1.067-0.523,1.451
			C217.787,50.168,217.326,50.36,216.754,50.36z"/>
		<path fill="#FFFFFF" d="M233.441,50.559c-1.717,0-3.254-0.391-4.611-1.173c-1.357-0.781-2.427-1.928-3.211-3.439
			c-0.784-1.511-1.176-3.366-1.176-5.566V30.6c0-0.583,0.18-1.067,0.541-1.451c0.361-0.384,0.815-0.576,1.363-0.576
			c0.547,0,1.001,0.193,1.363,0.576c0.361,0.385,0.541,0.869,0.541,1.451v9.781c0,1.485,0.261,2.71,0.784,3.678
			c0.523,0.968,1.232,1.684,2.128,2.147c0.896,0.464,1.904,0.696,3.024,0.696c1.07,0,2.022-0.225,2.856-0.676
			c0.834-0.45,1.499-1.06,1.997-1.829c0.498-0.768,0.747-1.63,0.747-2.584h2.352c0,1.644-0.38,3.128-1.139,4.453
			c-0.76,1.326-1.792,2.373-3.099,3.141C236.596,50.175,235.109,50.559,233.441,50.559z M241.692,50.36
			c-0.548,0-1.002-0.192-1.363-0.576c-0.361-0.384-0.541-0.868-0.541-1.451V30.6c0-0.609,0.18-1.1,0.541-1.471
			c0.36-0.371,0.815-0.557,1.363-0.557c0.572,0,1.033,0.186,1.381,0.557c0.348,0.371,0.523,0.862,0.523,1.471v17.733
			c0,0.583-0.174,1.067-0.523,1.451C242.725,50.168,242.264,50.36,241.692,50.36z"/>
		<path fill="#FFFFFF" d="M251.287,50.36c-0.597,0-1.058-0.165-1.381-0.497c-0.324-0.331-0.485-0.828-0.485-1.491V30.6
			c0-0.636,0.162-1.126,0.485-1.471c0.323-0.344,0.784-0.517,1.381-0.517c0.622,0,1.088,0.166,1.4,0.497
			c0.311,0.332,0.467,0.829,0.467,1.491v17.772c0,0.636-0.156,1.127-0.467,1.471C252.375,50.188,251.908,50.36,251.287,50.36z
			 M251.249,36.762c0-1.59,0.367-3.015,1.101-4.274c0.734-1.259,1.723-2.259,2.968-3.002c1.244-0.742,2.613-1.113,4.107-1.113
			s2.607,0.258,3.341,0.775c0.734,0.517,1.014,1.133,0.84,1.849c-0.075,0.371-0.218,0.656-0.429,0.855
			c-0.212,0.199-0.454,0.325-0.728,0.378c-0.274,0.053-0.573,0.04-0.896-0.04c-1.593-0.344-3.024-0.371-4.293-0.079
			c-1.269,0.292-2.271,0.835-3.005,1.63c-0.734,0.795-1.101,1.803-1.101,3.022H251.249z"/>
		<path fill="#FFFFFF" d="M274.769,50.519c-2.066,0-3.901-0.47-5.507-1.411c-1.605-0.941-2.862-2.24-3.771-3.896
			c-0.909-1.656-1.363-3.558-1.363-5.705c0-2.173,0.429-4.088,1.288-5.745c0.859-1.656,2.047-2.955,3.565-3.896
			c1.518-0.941,3.26-1.411,5.227-1.411c1.941,0,3.609,0.457,5.003,1.372c1.394,0.914,2.458,2.174,3.192,3.777
			c0.734,1.604,1.101,3.453,1.101,5.546c0,0.504-0.162,0.921-0.485,1.252c-0.324,0.332-0.734,0.497-1.232,0.497h-15.045v-3.181
			h14.933l-1.531,1.113c-0.025-1.325-0.274-2.511-0.747-3.558c-0.473-1.047-1.145-1.875-2.016-2.485
			c-0.872-0.609-1.929-0.914-3.173-0.914c-1.419,0-2.632,0.332-3.64,0.994c-1.008,0.663-1.773,1.571-2.296,2.724
			c-0.523,1.153-0.784,2.459-0.784,3.916c0,1.458,0.311,2.757,0.933,3.896c0.622,1.14,1.481,2.041,2.576,2.704
			c1.095,0.663,2.352,0.994,3.771,0.994c0.771,0,1.562-0.152,2.371-0.457c0.808-0.304,1.462-0.656,1.96-1.054
			c0.373-0.291,0.778-0.444,1.213-0.457c0.435-0.013,0.815,0.126,1.139,0.417c0.423,0.398,0.647,0.835,0.672,1.312
			c0.024,0.477-0.174,0.888-0.597,1.232c-0.846,0.716-1.898,1.299-3.155,1.749C277.115,50.294,275.914,50.519,274.769,50.519z"/>
	</g>
	<path id="path404" fill="#1A1A1A" d="M38.68,23.189v15.253H16.891V23.189H38.68z M16.891,18.832c-2.404,0-4.358,1.954-4.358,4.358
		v15.253c0,2.404,1.954,4.358,4.358,4.358h7.987l-0.729,2.179h-5.08c-1.205,0-2.179,0.974-2.179,2.179
		c0,1.205,0.974,2.179,2.179,2.179h17.431c1.205,0,2.179-0.974,2.179-2.179c0-1.205-0.974-2.179-2.179-2.179h-5.086L30.686,42.8
		h7.994c2.404,0,4.358-1.954,4.358-4.358V23.189c0-2.404-1.954-4.358-4.358-4.358H16.891z M48.486,18.832
		c-1.804,0-3.268,1.464-3.268,3.268v23.968c0,1.804,1.464,3.268,3.268,3.268h4.358c1.805,0,3.269-1.464,3.269-3.268V22.1
		c0-1.804-1.464-3.268-3.269-3.268H48.486z M49.575,23.189h2.179c0.599,0,1.089,0.49,1.089,1.09c0,0.599-0.49,1.089-1.089,1.089
		h-2.179c-0.599,0-1.09-0.49-1.09-1.089C48.486,23.68,48.976,23.189,49.575,23.189z M48.486,28.637c0-0.599,0.49-1.09,1.09-1.09
		h2.179c0.599,0,1.089,0.49,1.089,1.09s-0.49,1.09-1.089,1.09h-2.179C48.976,29.726,48.486,29.236,48.486,28.637z M50.665,43.889
		c-1.205,0-2.179-0.974-2.179-2.179c0-1.205,0.974-2.179,2.179-2.179s2.179,0.974,2.179,2.179
		C52.843,42.916,51.87,43.889,50.665,43.889z"/>
	<g enable-background="new    ">
		<path fill="#1A1A1A" d="M70.607,84.323c-0.559,0-1.092-0.089-1.599-0.267c-0.507-0.178-0.948-0.427-1.324-0.747
			c-0.376-0.32-0.651-0.689-0.826-1.107c-0.087-0.187-0.085-0.36,0.007-0.52c0.092-0.16,0.247-0.262,0.465-0.307
			c0.157-0.036,0.312-0.011,0.465,0.073c0.153,0.085,0.269,0.211,0.347,0.38c0.105,0.222,0.277,0.427,0.518,0.613
			c0.24,0.187,0.531,0.338,0.872,0.453c0.341,0.116,0.699,0.173,1.075,0.173c0.42,0,0.806-0.067,1.16-0.2
			c0.354-0.133,0.64-0.327,0.859-0.58c0.218-0.253,0.328-0.567,0.328-0.94c0-0.471-0.182-0.893-0.544-1.267
			c-0.363-0.373-0.959-0.604-1.789-0.693c-1.084-0.107-1.936-0.431-2.556-0.973c-0.621-0.542-0.931-1.213-0.931-2.013
			c0-0.587,0.162-1.084,0.485-1.493c0.323-0.409,0.762-0.72,1.317-0.933c0.555-0.213,1.173-0.32,1.855-0.32
			c0.533,0,0.998,0.076,1.396,0.227c0.398,0.151,0.745,0.36,1.042,0.627c0.297,0.267,0.555,0.582,0.773,0.947
			c0.122,0.196,0.172,0.38,0.151,0.553c-0.022,0.173-0.107,0.309-0.256,0.407c-0.166,0.107-0.345,0.129-0.537,0.067
			c-0.192-0.062-0.336-0.178-0.433-0.347c-0.14-0.258-0.31-0.475-0.511-0.653c-0.201-0.178-0.437-0.318-0.708-0.42
			c-0.271-0.102-0.59-0.153-0.957-0.153c-0.647-0.009-1.189,0.113-1.625,0.367c-0.437,0.253-0.655,0.642-0.655,1.167
			c0,0.267,0.067,0.522,0.203,0.767c0.135,0.245,0.384,0.456,0.747,0.633c0.363,0.178,0.885,0.302,1.566,0.373
			c1.04,0.107,1.85,0.429,2.432,0.967C74,79.721,74.29,80.43,74.29,81.31c0,0.507-0.103,0.947-0.308,1.32
			c-0.205,0.373-0.481,0.687-0.826,0.94c-0.345,0.253-0.739,0.442-1.18,0.567C71.535,84.261,71.079,84.323,70.607,84.323z"/>
		<path fill="#1A1A1A" d="M79.494,84.243c-0.708,0-1.333-0.158-1.874-0.473c-0.542-0.315-0.968-0.751-1.278-1.307
			c-0.31-0.555-0.465-1.193-0.465-1.913c0-0.729,0.155-1.371,0.465-1.927c0.31-0.555,0.736-0.991,1.278-1.307
			c0.542-0.315,1.167-0.473,1.874-0.473c0.699,0,1.319,0.158,1.861,0.473c0.542,0.316,0.968,0.751,1.278,1.307
			c0.31,0.556,0.465,1.198,0.465,1.927c0,0.72-0.153,1.358-0.459,1.913c-0.306,0.556-0.73,0.991-1.272,1.307
			C80.827,84.085,80.202,84.243,79.494,84.243z M79.494,83.043c0.454,0,0.856-0.107,1.206-0.32c0.349-0.213,0.623-0.507,0.819-0.88
			c0.197-0.373,0.295-0.804,0.295-1.293c0-0.489-0.098-0.922-0.295-1.3c-0.197-0.378-0.47-0.673-0.819-0.887
			c-0.35-0.213-0.752-0.32-1.206-0.32c-0.454,0-0.856,0.107-1.206,0.32c-0.35,0.213-0.625,0.509-0.826,0.887
			c-0.201,0.378-0.301,0.811-0.301,1.3c0,0.489,0.1,0.92,0.301,1.293c0.201,0.373,0.476,0.667,0.826,0.88
			C78.638,82.936,79.04,83.043,79.494,83.043z"/>
		<path fill="#1A1A1A" d="M86.795,84.19c-0.385,0-0.725-0.107-1.022-0.32c-0.297-0.213-0.529-0.504-0.695-0.873
			c-0.166-0.369-0.249-0.793-0.249-1.273v-7.28c0-0.195,0.061-0.355,0.184-0.48c0.122-0.124,0.28-0.187,0.472-0.187
			c0.192,0,0.349,0.062,0.472,0.187c0.122,0.125,0.184,0.285,0.184,0.48v7.28c0,0.329,0.061,0.6,0.184,0.813
			c0.122,0.213,0.28,0.32,0.472,0.32h0.328c0.175,0,0.317,0.062,0.426,0.187c0.109,0.125,0.164,0.285,0.164,0.48
			c0,0.196-0.083,0.356-0.249,0.48c-0.166,0.125-0.38,0.187-0.642,0.187H86.795z"/>
		<path fill="#1A1A1A" d="M92.038,84.256c-0.603,0-1.143-0.131-1.619-0.393c-0.476-0.262-0.852-0.647-1.127-1.153
			c-0.275-0.507-0.413-1.129-0.413-1.867v-3.28c0-0.195,0.063-0.358,0.19-0.487c0.127-0.129,0.286-0.193,0.478-0.193
			c0.192,0,0.352,0.065,0.478,0.193c0.127,0.129,0.19,0.291,0.19,0.487v3.28c0,0.498,0.092,0.909,0.275,1.233
			c0.184,0.325,0.433,0.565,0.747,0.72c0.315,0.156,0.668,0.233,1.062,0.233c0.376,0,0.71-0.075,1.003-0.227
			c0.293-0.151,0.526-0.355,0.701-0.613c0.175-0.258,0.262-0.547,0.262-0.867h0.826c0,0.551-0.133,1.049-0.4,1.493
			c-0.267,0.445-0.629,0.796-1.088,1.053C93.146,84.128,92.623,84.256,92.038,84.256z M94.935,84.19
			c-0.192,0-0.352-0.064-0.479-0.193c-0.127-0.129-0.19-0.291-0.19-0.487v-5.947c0-0.204,0.063-0.369,0.19-0.493
			c0.127-0.125,0.286-0.187,0.479-0.187c0.201,0,0.362,0.062,0.485,0.187c0.122,0.124,0.183,0.289,0.183,0.493v5.947
			c0,0.196-0.061,0.358-0.183,0.487C95.298,84.125,95.136,84.19,94.935,84.19z"/>
		<path fill="#1A1A1A" d="M101.214,84.243c-0.699,0-1.322-0.162-1.868-0.487c-0.546-0.324-0.975-0.764-1.285-1.32
			c-0.31-0.555-0.465-1.184-0.465-1.887c0-0.72,0.153-1.36,0.459-1.92c0.306-0.56,0.725-0.998,1.258-1.313
			c0.533-0.315,1.145-0.473,1.835-0.473c0.515,0,0.987,0.1,1.416,0.3c0.428,0.2,0.813,0.5,1.154,0.9
			c0.122,0.142,0.166,0.289,0.131,0.44c-0.035,0.151-0.131,0.285-0.288,0.4c-0.122,0.089-0.258,0.118-0.406,0.087
			c-0.149-0.031-0.284-0.109-0.406-0.233c-0.428-0.462-0.961-0.693-1.599-0.693c-0.446,0-0.839,0.105-1.18,0.313
			c-0.341,0.209-0.607,0.5-0.799,0.873c-0.192,0.373-0.288,0.813-0.288,1.32c0,0.48,0.098,0.907,0.295,1.28
			c0.197,0.373,0.469,0.669,0.819,0.887c0.349,0.218,0.756,0.327,1.219,0.327c0.306,0,0.575-0.038,0.806-0.113
			c0.231-0.075,0.443-0.193,0.636-0.353c0.14-0.115,0.284-0.18,0.433-0.193c0.149-0.013,0.28,0.029,0.393,0.127
			c0.148,0.125,0.231,0.265,0.249,0.42c0.017,0.156-0.035,0.296-0.157,0.42C102.944,83.945,102.157,84.243,101.214,84.243z"/>
		<path fill="#1A1A1A" d="M106.64,75.71c-0.236,0-0.439-0.087-0.61-0.26c-0.17-0.173-0.256-0.38-0.256-0.62
			c0-0.24,0.085-0.447,0.256-0.62c0.17-0.173,0.374-0.26,0.61-0.26c0.236,0,0.439,0.087,0.61,0.26c0.17,0.173,0.256,0.38,0.256,0.62
			c0,0.24-0.085,0.447-0.256,0.62S106.876,75.71,106.64,75.71z M106.64,84.19c-0.192,0-0.352-0.064-0.478-0.193
			c-0.127-0.129-0.19-0.291-0.19-0.487v-5.933c0-0.204,0.063-0.369,0.19-0.493c0.127-0.124,0.286-0.187,0.478-0.187
			c0.201,0,0.363,0.062,0.485,0.187c0.122,0.125,0.184,0.289,0.184,0.493v5.933c0,0.196-0.061,0.358-0.184,0.487
			C107.003,84.125,106.841,84.19,106.64,84.19z"/>
		<path fill="#1A1A1A" d="M113.05,84.243c-0.708,0-1.333-0.158-1.874-0.473c-0.542-0.315-0.968-0.751-1.278-1.307
			c-0.31-0.555-0.465-1.193-0.465-1.913c0-0.729,0.155-1.371,0.465-1.927c0.31-0.555,0.736-0.991,1.278-1.307
			c0.542-0.315,1.167-0.473,1.874-0.473c0.699,0,1.319,0.158,1.861,0.473c0.542,0.316,0.968,0.751,1.278,1.307
			c0.31,0.556,0.465,1.198,0.465,1.927c0,0.72-0.153,1.358-0.459,1.913c-0.306,0.556-0.73,0.991-1.272,1.307
			C114.383,84.085,113.758,84.243,113.05,84.243z M113.05,83.043c0.454,0,0.856-0.107,1.206-0.32
			c0.349-0.213,0.623-0.507,0.819-0.88c0.197-0.373,0.295-0.804,0.295-1.293c0-0.489-0.098-0.922-0.295-1.3
			c-0.197-0.378-0.47-0.673-0.819-0.887c-0.35-0.213-0.752-0.32-1.206-0.32c-0.454,0-0.856,0.107-1.206,0.32
			c-0.35,0.213-0.625,0.509-0.826,0.887c-0.201,0.378-0.301,0.811-0.301,1.3c0,0.489,0.1,0.92,0.301,1.293
			c0.201,0.373,0.476,0.667,0.826,0.88C112.194,82.936,112.596,83.043,113.05,83.043z"/>
		<path fill="#1A1A1A" d="M119.316,84.203c-0.192,0-0.352-0.064-0.478-0.193c-0.127-0.129-0.19-0.291-0.19-0.487v-5.947
			c0-0.204,0.063-0.369,0.19-0.493c0.127-0.124,0.286-0.187,0.478-0.187c0.201,0,0.363,0.062,0.485,0.187
			c0.122,0.125,0.184,0.289,0.184,0.493v5.947c0,0.196-0.061,0.358-0.184,0.487C119.678,84.139,119.516,84.203,119.316,84.203z
			 M124.703,84.203c-0.192,0-0.352-0.064-0.478-0.193c-0.127-0.129-0.19-0.291-0.19-0.487v-3.28c0-0.507-0.092-0.92-0.275-1.24
			c-0.184-0.32-0.431-0.558-0.741-0.713c-0.31-0.156-0.667-0.233-1.068-0.233c-0.367,0-0.699,0.076-0.996,0.227
			c-0.297,0.151-0.533,0.353-0.708,0.607c-0.175,0.253-0.262,0.545-0.262,0.873h-0.826c0-0.56,0.133-1.06,0.4-1.5
			c0.267-0.44,0.631-0.789,1.095-1.047c0.463-0.258,0.983-0.387,1.56-0.387c0.603,0,1.142,0.131,1.619,0.393
			c0.476,0.262,0.852,0.647,1.127,1.153c0.275,0.507,0.413,1.129,0.413,1.867v3.28c0,0.196-0.063,0.358-0.19,0.487
			S124.895,84.203,124.703,84.203z"/>
		<path fill="#1A1A1A" d="M130.195,84.243c-0.612,0-1.178-0.096-1.698-0.287c-0.52-0.191-0.924-0.433-1.212-0.727
			c-0.131-0.142-0.186-0.304-0.164-0.487c0.022-0.182,0.107-0.331,0.256-0.447c0.175-0.142,0.347-0.202,0.518-0.18
			c0.17,0.022,0.317,0.1,0.439,0.233c0.148,0.169,0.387,0.327,0.714,0.473c0.328,0.147,0.693,0.22,1.095,0.22
			c0.507,0,0.893-0.084,1.16-0.253c0.266-0.169,0.404-0.387,0.413-0.653c0.009-0.267-0.116-0.498-0.374-0.693
			c-0.258-0.195-0.728-0.355-1.409-0.48c-0.883-0.178-1.523-0.444-1.92-0.8c-0.398-0.355-0.596-0.791-0.596-1.307
			c0-0.453,0.131-0.829,0.393-1.127c0.262-0.298,0.599-0.52,1.009-0.667c0.411-0.147,0.839-0.22,1.285-0.22
			c0.577,0,1.088,0.093,1.534,0.28c0.446,0.187,0.8,0.445,1.062,0.773c0.122,0.142,0.179,0.291,0.17,0.447
			c-0.009,0.156-0.083,0.287-0.223,0.393c-0.14,0.098-0.306,0.129-0.498,0.093c-0.192-0.035-0.354-0.115-0.485-0.24
			c-0.218-0.213-0.454-0.36-0.708-0.44c-0.254-0.08-0.546-0.12-0.878-0.12c-0.385,0-0.71,0.067-0.976,0.2
			c-0.267,0.133-0.4,0.329-0.4,0.587c0,0.16,0.041,0.305,0.124,0.433c0.083,0.129,0.247,0.245,0.492,0.347
			c0.244,0.102,0.603,0.202,1.075,0.3c0.655,0.133,1.173,0.302,1.553,0.507c0.38,0.205,0.653,0.442,0.819,0.713
			c0.166,0.271,0.249,0.585,0.249,0.94c0,0.409-0.107,0.778-0.321,1.107c-0.214,0.329-0.529,0.591-0.944,0.787
			C131.333,84.145,130.816,84.243,130.195,84.243z"/>
		<path fill="#1A1A1A" d="M139.345,75.71c-0.236,0-0.439-0.087-0.61-0.26c-0.17-0.173-0.256-0.38-0.256-0.62
			c0-0.24,0.085-0.447,0.256-0.62c0.17-0.173,0.374-0.26,0.61-0.26s0.439,0.087,0.61,0.26c0.17,0.173,0.256,0.38,0.256,0.62
			c0,0.24-0.085,0.447-0.256,0.62C139.784,75.623,139.581,75.71,139.345,75.71z M139.345,84.19c-0.192,0-0.352-0.064-0.478-0.193
			c-0.127-0.129-0.19-0.291-0.19-0.487v-5.933c0-0.204,0.063-0.369,0.19-0.493c0.127-0.124,0.286-0.187,0.478-0.187
			c0.201,0,0.363,0.062,0.485,0.187c0.122,0.125,0.184,0.289,0.184,0.493v5.933c0,0.196-0.061,0.358-0.184,0.487
			C139.707,84.125,139.546,84.19,139.345,84.19z"/>
		<path fill="#1A1A1A" d="M143.172,84.203c-0.192,0-0.352-0.064-0.478-0.193c-0.127-0.129-0.19-0.291-0.19-0.487v-5.947
			c0-0.204,0.063-0.369,0.19-0.493c0.127-0.124,0.286-0.187,0.478-0.187c0.201,0,0.363,0.062,0.485,0.187
			c0.122,0.125,0.184,0.289,0.184,0.493v5.947c0,0.196-0.061,0.358-0.184,0.487C143.535,84.139,143.373,84.203,143.172,84.203z
			 M148.559,84.203c-0.192,0-0.352-0.064-0.478-0.193c-0.127-0.129-0.19-0.291-0.19-0.487v-3.28c0-0.507-0.092-0.92-0.275-1.24
			c-0.184-0.32-0.431-0.558-0.741-0.713c-0.31-0.156-0.667-0.233-1.068-0.233c-0.367,0-0.699,0.076-0.996,0.227
			c-0.297,0.151-0.533,0.353-0.708,0.607c-0.175,0.253-0.262,0.545-0.262,0.873h-0.826c0-0.56,0.133-1.06,0.4-1.5
			c0.267-0.44,0.631-0.789,1.095-1.047c0.463-0.258,0.983-0.387,1.56-0.387c0.603,0,1.142,0.131,1.619,0.393
			c0.476,0.262,0.852,0.647,1.127,1.153c0.275,0.507,0.413,1.129,0.413,1.867v3.28c0,0.196-0.063,0.358-0.19,0.487
			S148.752,84.203,148.559,84.203z"/>
		<path fill="#1A1A1A" d="M151.01,78.31c-0.184,0-0.332-0.053-0.446-0.16c-0.114-0.107-0.17-0.24-0.17-0.4
			c0-0.178,0.057-0.32,0.17-0.427c0.114-0.107,0.262-0.16,0.446-0.16h3.238c0.184,0,0.332,0.053,0.446,0.16
			c0.114,0.107,0.17,0.249,0.17,0.427c0,0.16-0.057,0.293-0.17,0.4c-0.114,0.107-0.262,0.16-0.446,0.16H151.01z M152.216,84.19
			c-0.166,0-0.315-0.062-0.446-0.187c-0.131-0.124-0.197-0.289-0.197-0.493v-6.573c0-0.64,0.124-1.195,0.374-1.667
			c0.249-0.471,0.596-0.838,1.042-1.1c0.446-0.262,0.961-0.393,1.547-0.393c0.192,0,0.352,0.058,0.478,0.173
			c0.127,0.116,0.19,0.262,0.19,0.44c0,0.169-0.063,0.313-0.19,0.433c-0.127,0.12-0.286,0.18-0.478,0.18
			c-0.323,0-0.607,0.076-0.852,0.227c-0.245,0.151-0.435,0.36-0.57,0.627c-0.136,0.267-0.203,0.582-0.203,0.947v6.707
			c0,0.205-0.061,0.369-0.184,0.493C152.605,84.128,152.435,84.19,152.216,84.19z"/>
		<path fill="#1A1A1A" d="M159.242,84.243c-0.708,0-1.333-0.158-1.874-0.473c-0.542-0.315-0.968-0.751-1.278-1.307
			c-0.31-0.555-0.465-1.193-0.465-1.913c0-0.729,0.155-1.371,0.465-1.927c0.31-0.555,0.736-0.991,1.278-1.307
			c0.542-0.315,1.167-0.473,1.874-0.473c0.699,0,1.319,0.158,1.861,0.473c0.542,0.316,0.968,0.751,1.278,1.307
			c0.31,0.556,0.465,1.198,0.465,1.927c0,0.72-0.153,1.358-0.459,1.913c-0.306,0.556-0.73,0.991-1.272,1.307
			C160.575,84.085,159.95,84.243,159.242,84.243z M159.242,83.043c0.454,0,0.856-0.107,1.206-0.32
			c0.349-0.213,0.623-0.507,0.819-0.88c0.197-0.373,0.295-0.804,0.295-1.293c0-0.489-0.098-0.922-0.295-1.3
			c-0.197-0.378-0.47-0.673-0.819-0.887c-0.35-0.213-0.752-0.32-1.206-0.32c-0.454,0-0.856,0.107-1.206,0.32
			c-0.35,0.213-0.625,0.509-0.826,0.887c-0.201,0.378-0.301,0.811-0.301,1.3c0,0.489,0.1,0.92,0.301,1.293
			c0.201,0.373,0.476,0.667,0.826,0.88C158.386,82.936,158.788,83.043,159.242,83.043z"/>
		<path fill="#1A1A1A" d="M165.495,84.19c-0.21,0-0.371-0.055-0.485-0.167c-0.114-0.111-0.17-0.278-0.17-0.5v-5.96
			c0-0.213,0.057-0.378,0.17-0.493c0.114-0.115,0.275-0.173,0.485-0.173c0.218,0,0.382,0.056,0.492,0.167
			c0.109,0.111,0.164,0.278,0.164,0.5v5.96c0,0.213-0.055,0.378-0.164,0.493C165.877,84.132,165.713,84.19,165.495,84.19z
			 M165.482,79.63c0-0.533,0.129-1.011,0.387-1.433c0.258-0.422,0.605-0.758,1.042-1.007c0.437-0.249,0.918-0.373,1.442-0.373
			c0.524,0,0.915,0.087,1.173,0.26s0.356,0.38,0.295,0.62c-0.026,0.125-0.077,0.22-0.151,0.287c-0.074,0.067-0.16,0.109-0.256,0.127
			c-0.096,0.018-0.201,0.013-0.315-0.013c-0.559-0.115-1.062-0.124-1.507-0.027c-0.446,0.098-0.797,0.28-1.055,0.547
			c-0.258,0.267-0.387,0.604-0.387,1.013H165.482z"/>
		<path fill="#1A1A1A" d="M171.878,84.203c-0.192,0-0.352-0.064-0.478-0.193c-0.127-0.129-0.19-0.291-0.19-0.487V77.59
			c0-0.204,0.063-0.369,0.19-0.493c0.127-0.124,0.286-0.187,0.478-0.187c0.201,0,0.363,0.062,0.485,0.187
			c0.122,0.125,0.184,0.289,0.184,0.493v5.933c0,0.196-0.061,0.358-0.184,0.487C172.241,84.139,172.079,84.203,171.878,84.203z
			 M176.256,84.203c-0.192,0-0.352-0.064-0.478-0.193c-0.127-0.129-0.19-0.291-0.19-0.487V79.71c0-0.56-0.135-0.975-0.406-1.247
			c-0.271-0.271-0.625-0.407-1.062-0.407c-0.454,0-0.83,0.16-1.127,0.48c-0.297,0.32-0.446,0.729-0.446,1.227h-0.826
			c0-0.578,0.113-1.087,0.341-1.527c0.227-0.44,0.542-0.784,0.944-1.033c0.402-0.249,0.861-0.373,1.376-0.373
			c0.498,0,0.939,0.111,1.324,0.333c0.384,0.222,0.684,0.549,0.898,0.98c0.214,0.431,0.321,0.953,0.321,1.567v3.813
			c0,0.196-0.061,0.358-0.184,0.487C176.619,84.139,176.457,84.203,176.256,84.203z M180.621,84.203
			c-0.192,0-0.352-0.064-0.478-0.193c-0.127-0.129-0.19-0.291-0.19-0.487V79.71c0-0.56-0.136-0.975-0.406-1.247
			c-0.271-0.271-0.625-0.407-1.062-0.407c-0.455,0-0.828,0.16-1.121,0.48c-0.293,0.32-0.439,0.729-0.439,1.227h-1.088
			c0-0.578,0.122-1.087,0.367-1.527c0.245-0.44,0.588-0.784,1.029-1.033c0.441-0.249,0.946-0.373,1.514-0.373
			c0.498,0,0.939,0.111,1.324,0.333c0.384,0.222,0.684,0.549,0.898,0.98c0.214,0.431,0.321,0.953,0.321,1.567v3.813
			c0,0.196-0.061,0.358-0.184,0.487C180.984,84.139,180.822,84.203,180.621,84.203z"/>
		<path fill="#1A1A1A" d="M186.494,84.243c-0.638,0-1.21-0.162-1.717-0.487c-0.507-0.324-0.907-0.764-1.199-1.32
			c-0.293-0.555-0.439-1.184-0.439-1.887c0-0.702,0.159-1.333,0.479-1.893c0.319-0.56,0.751-1.002,1.298-1.327
			c0.546-0.324,1.16-0.487,1.842-0.487c0.682,0,1.293,0.162,1.835,0.487c0.542,0.324,0.972,0.767,1.291,1.327
			c0.319,0.56,0.478,1.191,0.478,1.893h-0.511c0,0.702-0.146,1.331-0.439,1.887c-0.293,0.556-0.693,0.996-1.199,1.32
			C187.704,84.081,187.131,84.243,186.494,84.243z M186.756,83.043c0.446,0,0.843-0.109,1.193-0.327
			c0.349-0.218,0.625-0.515,0.826-0.893c0.201-0.378,0.301-0.802,0.301-1.273c0-0.48-0.101-0.909-0.301-1.287
			c-0.201-0.378-0.476-0.675-0.826-0.893c-0.35-0.218-0.747-0.327-1.193-0.327c-0.437,0-0.832,0.109-1.186,0.327
			c-0.354,0.218-0.634,0.516-0.839,0.893c-0.205,0.378-0.308,0.807-0.308,1.287c0,0.471,0.103,0.896,0.308,1.273
			c0.205,0.378,0.485,0.676,0.839,0.893C185.923,82.934,186.319,83.043,186.756,83.043z M186.716,75.75
			c-0.192,0-0.345-0.062-0.459-0.187l-1.284-1.293c-0.114-0.115-0.17-0.271-0.17-0.467c0-0.195,0.061-0.36,0.183-0.493
			c0.122-0.133,0.28-0.2,0.472-0.2c0.184,0,0.345,0.067,0.485,0.2l1.271,1.307c0.113,0.116,0.17,0.267,0.17,0.453
			c0,0.196-0.064,0.358-0.19,0.487C187.068,75.685,186.909,75.75,186.716,75.75z M189.692,84.203c-0.192,0-0.352-0.064-0.478-0.193
			c-0.127-0.129-0.19-0.291-0.19-0.487v-2.04l0.249-1.413l1.088,0.48v2.973c0,0.196-0.063,0.358-0.19,0.487
			S189.884,84.203,189.692,84.203z"/>
		<path fill="#1A1A1A" d="M192.051,78.31c-0.184,0-0.332-0.053-0.446-0.16c-0.114-0.107-0.17-0.24-0.17-0.4
			c0-0.178,0.057-0.32,0.17-0.427c0.114-0.107,0.262-0.16,0.446-0.16h3.028c0.184,0,0.332,0.053,0.446,0.16
			c0.113,0.107,0.17,0.249,0.17,0.427c0,0.16-0.057,0.293-0.17,0.4c-0.114,0.107-0.262,0.16-0.446,0.16H192.051z M194.961,84.19
			c-0.437,0-0.83-0.113-1.18-0.34c-0.35-0.227-0.625-0.535-0.826-0.927c-0.201-0.391-0.301-0.831-0.301-1.32v-6.36
			c0-0.195,0.061-0.355,0.184-0.48c0.122-0.124,0.28-0.187,0.472-0.187c0.192,0,0.35,0.062,0.472,0.187
			c0.122,0.125,0.183,0.285,0.183,0.48v6.36c0,0.356,0.096,0.653,0.288,0.893c0.192,0.24,0.428,0.36,0.708,0.36h0.446
			c0.157,0,0.29,0.062,0.4,0.187c0.109,0.125,0.164,0.285,0.164,0.48c0,0.196-0.072,0.356-0.216,0.48
			c-0.144,0.125-0.33,0.187-0.557,0.187H194.961z"/>
		<path fill="#1A1A1A" d="M198.409,75.71c-0.236,0-0.439-0.087-0.61-0.26c-0.17-0.173-0.256-0.38-0.256-0.62
			c0-0.24,0.085-0.447,0.256-0.62c0.17-0.173,0.374-0.26,0.61-0.26s0.439,0.087,0.61,0.26c0.17,0.173,0.256,0.38,0.256,0.62
			c0,0.24-0.085,0.447-0.256,0.62C198.848,75.623,198.645,75.71,198.409,75.71z M198.409,84.19c-0.192,0-0.352-0.064-0.478-0.193
			c-0.127-0.129-0.19-0.291-0.19-0.487v-5.933c0-0.204,0.063-0.369,0.19-0.493c0.127-0.124,0.286-0.187,0.478-0.187
			c0.201,0,0.363,0.062,0.485,0.187c0.122,0.125,0.184,0.289,0.184,0.493v5.933c0,0.196-0.061,0.358-0.184,0.487
			C198.771,84.125,198.609,84.19,198.409,84.19z"/>
		<path fill="#1A1A1A" d="M207.768,87.31c-0.201,0-0.365-0.065-0.492-0.193c-0.127-0.129-0.19-0.291-0.19-0.487v-3.6
			c-0.297,0.373-0.664,0.669-1.101,0.887c-0.437,0.218-0.913,0.327-1.429,0.327c-0.638,0-1.21-0.162-1.717-0.487
			c-0.507-0.324-0.907-0.764-1.199-1.32c-0.293-0.555-0.439-1.184-0.439-1.887c0-0.702,0.159-1.333,0.479-1.893
			c0.319-0.56,0.751-1.002,1.298-1.327c0.546-0.324,1.16-0.487,1.842-0.487c0.682,0,1.293,0.162,1.835,0.487
			s0.972,0.767,1.291,1.327c0.319,0.56,0.478,1.191,0.478,1.893v6.08c0,0.195-0.061,0.358-0.184,0.487
			C208.117,87.245,207.96,87.31,207.768,87.31z M204.818,83.043c0.446,0,0.843-0.109,1.193-0.327
			c0.349-0.218,0.625-0.515,0.826-0.893c0.201-0.378,0.301-0.802,0.301-1.273c0-0.48-0.101-0.909-0.301-1.287
			c-0.201-0.378-0.476-0.675-0.826-0.893c-0.35-0.218-0.747-0.327-1.193-0.327c-0.437,0-0.832,0.109-1.186,0.327
			c-0.354,0.218-0.634,0.516-0.839,0.893c-0.205,0.378-0.308,0.807-0.308,1.287c0,0.471,0.103,0.896,0.308,1.273
			c0.205,0.378,0.485,0.676,0.839,0.893C203.986,82.934,204.381,83.043,204.818,83.043z"/>
		<path fill="#1A1A1A" d="M213.797,84.256c-0.603,0-1.143-0.131-1.619-0.393c-0.476-0.262-0.852-0.647-1.127-1.153
			c-0.275-0.507-0.413-1.129-0.413-1.867v-3.28c0-0.195,0.063-0.358,0.19-0.487c0.127-0.129,0.286-0.193,0.478-0.193
			c0.192,0,0.352,0.065,0.478,0.193c0.127,0.129,0.19,0.291,0.19,0.487v3.28c0,0.498,0.092,0.909,0.275,1.233
			c0.184,0.325,0.433,0.565,0.747,0.72c0.315,0.156,0.668,0.233,1.062,0.233c0.376,0,0.71-0.075,1.003-0.227
			c0.293-0.151,0.526-0.355,0.701-0.613c0.175-0.258,0.262-0.547,0.262-0.867h0.826c0,0.551-0.133,1.049-0.4,1.493
			c-0.267,0.445-0.629,0.796-1.088,1.053C214.905,84.128,214.382,84.256,213.797,84.256z M216.694,84.19
			c-0.192,0-0.352-0.064-0.479-0.193c-0.127-0.129-0.19-0.291-0.19-0.487v-5.947c0-0.204,0.063-0.369,0.19-0.493
			c0.127-0.125,0.286-0.187,0.479-0.187c0.201,0,0.362,0.062,0.485,0.187c0.122,0.124,0.183,0.289,0.183,0.493v5.947
			c0,0.196-0.061,0.358-0.183,0.487C217.056,84.125,216.895,84.19,216.694,84.19z"/>
		<path fill="#1A1A1A" d="M223.091,84.243c-0.725,0-1.37-0.158-1.933-0.473c-0.564-0.315-1.005-0.751-1.324-1.307
			c-0.319-0.555-0.479-1.193-0.479-1.913c0-0.729,0.151-1.371,0.452-1.927c0.301-0.555,0.719-0.991,1.252-1.307
			c0.533-0.315,1.145-0.473,1.835-0.473c0.682,0,1.267,0.153,1.756,0.46c0.489,0.307,0.863,0.729,1.121,1.267
			c0.258,0.538,0.387,1.158,0.387,1.86c0,0.169-0.057,0.309-0.171,0.42c-0.114,0.111-0.258,0.167-0.433,0.167h-5.282V79.95h5.243
			l-0.537,0.373c-0.009-0.444-0.096-0.842-0.262-1.193c-0.166-0.351-0.402-0.629-0.708-0.833c-0.306-0.204-0.677-0.307-1.114-0.307
			c-0.498,0-0.924,0.111-1.278,0.333c-0.354,0.222-0.623,0.527-0.806,0.913c-0.183,0.387-0.275,0.825-0.275,1.313
			c0,0.489,0.109,0.925,0.328,1.307c0.218,0.382,0.52,0.685,0.905,0.907c0.384,0.222,0.826,0.333,1.324,0.333
			c0.271,0,0.548-0.051,0.833-0.153c0.284-0.102,0.513-0.22,0.688-0.353c0.131-0.098,0.273-0.149,0.426-0.153
			c0.153-0.004,0.286,0.042,0.4,0.14c0.148,0.133,0.227,0.28,0.236,0.44c0.009,0.16-0.061,0.298-0.21,0.413
			c-0.297,0.24-0.666,0.436-1.107,0.587C223.914,84.168,223.492,84.243,223.091,84.243z"/>
		<path fill="#1A1A1A" d="M230.47,84.243c-0.612,0-1.178-0.096-1.698-0.287c-0.52-0.191-0.924-0.433-1.212-0.727
			c-0.131-0.142-0.186-0.304-0.164-0.487c0.022-0.182,0.107-0.331,0.256-0.447c0.175-0.142,0.347-0.202,0.518-0.18
			c0.17,0.022,0.317,0.1,0.439,0.233c0.148,0.169,0.387,0.327,0.714,0.473c0.328,0.147,0.693,0.22,1.095,0.22
			c0.507,0,0.893-0.084,1.16-0.253c0.266-0.169,0.404-0.387,0.413-0.653c0.009-0.267-0.116-0.498-0.374-0.693
			c-0.258-0.195-0.728-0.355-1.409-0.48c-0.883-0.178-1.523-0.444-1.92-0.8c-0.398-0.355-0.596-0.791-0.596-1.307
			c0-0.453,0.131-0.829,0.393-1.127c0.262-0.298,0.599-0.52,1.009-0.667c0.411-0.147,0.839-0.22,1.285-0.22
			c0.577,0,1.088,0.093,1.534,0.28c0.446,0.187,0.8,0.445,1.062,0.773c0.122,0.142,0.179,0.291,0.17,0.447
			c-0.009,0.156-0.083,0.287-0.223,0.393c-0.14,0.098-0.306,0.129-0.498,0.093c-0.192-0.035-0.354-0.115-0.485-0.24
			c-0.218-0.213-0.454-0.36-0.708-0.44c-0.254-0.08-0.546-0.12-0.878-0.12c-0.385,0-0.71,0.067-0.976,0.2
			c-0.267,0.133-0.4,0.329-0.4,0.587c0,0.16,0.041,0.305,0.124,0.433c0.083,0.129,0.247,0.245,0.492,0.347
			c0.244,0.102,0.603,0.202,1.075,0.3c0.655,0.133,1.173,0.302,1.553,0.507c0.38,0.205,0.653,0.442,0.819,0.713
			c0.166,0.271,0.249,0.585,0.249,0.94c0,0.409-0.107,0.778-0.321,1.107c-0.214,0.329-0.529,0.591-0.944,0.787
			C231.609,84.145,231.091,84.243,230.47,84.243z"/>
	</g>
</g>
</svg>
